<mxfile host="app.diagrams.net" modified="2023-11-09T23:44:13.583Z" agent="Mozilla/5.0 (Windows NT 10.0; Win64; x64) AppleWebKit/537.36 (KHTML, like Gecko) Chrome/119.0.0.0 Safari/537.36" etag="Yn4IlOlNtkqOM1LOHUnj" version="22.1.0" type="device">
  <diagram id="C5RBs43oDa-KdzZeNtuy" name="Page-1">
    <mxGraphModel dx="1302" dy="703" grid="1" gridSize="10" guides="1" tooltips="1" connect="1" arrows="1" fold="1" page="1" pageScale="1" pageWidth="827" pageHeight="1169" math="0" shadow="0">
      <root>
        <mxCell id="WIyWlLk6GJQsqaUBKTNV-0" />
        <mxCell id="WIyWlLk6GJQsqaUBKTNV-1" parent="WIyWlLk6GJQsqaUBKTNV-0" />
        <mxCell id="9c-8RdRJVq3FMeGu2rLj-2" value="Input n, m&amp;nbsp;" style="shape=parallelogram;html=1;strokeWidth=2;perimeter=parallelogramPerimeter;whiteSpace=wrap;rounded=1;arcSize=12;size=0.23;" vertex="1" parent="WIyWlLk6GJQsqaUBKTNV-1">
          <mxGeometry x="157" y="150" width="125" height="60" as="geometry" />
        </mxCell>
        <mxCell id="9c-8RdRJVq3FMeGu2rLj-3" value="Output Results" style="shape=parallelogram;html=1;strokeWidth=2;perimeter=parallelogramPerimeter;whiteSpace=wrap;rounded=1;arcSize=12;size=0.23;" vertex="1" parent="WIyWlLk6GJQsqaUBKTNV-1">
          <mxGeometry x="159" y="469" width="120" height="60" as="geometry" />
        </mxCell>
        <mxCell id="9c-8RdRJVq3FMeGu2rLj-5" value="Result 1: m+--n&lt;br&gt;n++&amp;nbsp;&lt;br&gt;Result 2: m++&amp;lt;++n&lt;br&gt;m--&lt;br&gt;Result 3: n--&amp;lt;--m&lt;br&gt;--n" style="rounded=1;whiteSpace=wrap;html=1;absoluteArcSize=1;arcSize=14;strokeWidth=2;" vertex="1" parent="WIyWlLk6GJQsqaUBKTNV-1">
          <mxGeometry x="146" y="270" width="133" height="130" as="geometry" />
        </mxCell>
        <mxCell id="9c-8RdRJVq3FMeGu2rLj-10" style="edgeStyle=orthogonalEdgeStyle;rounded=0;orthogonalLoop=1;jettySize=auto;html=1;entryX=0.5;entryY=0;entryDx=0;entryDy=0;" edge="1" parent="WIyWlLk6GJQsqaUBKTNV-1" source="9c-8RdRJVq3FMeGu2rLj-7" target="9c-8RdRJVq3FMeGu2rLj-2">
          <mxGeometry relative="1" as="geometry" />
        </mxCell>
        <mxCell id="9c-8RdRJVq3FMeGu2rLj-7" value="start" style="strokeWidth=2;html=1;shape=mxgraph.flowchart.start_1;whiteSpace=wrap;" vertex="1" parent="WIyWlLk6GJQsqaUBKTNV-1">
          <mxGeometry x="170" y="60" width="100" height="60" as="geometry" />
        </mxCell>
        <mxCell id="9c-8RdRJVq3FMeGu2rLj-8" value="End" style="strokeWidth=2;html=1;shape=mxgraph.flowchart.terminator;whiteSpace=wrap;" vertex="1" parent="WIyWlLk6GJQsqaUBKTNV-1">
          <mxGeometry x="157" y="564" width="100" height="60" as="geometry" />
        </mxCell>
        <mxCell id="9c-8RdRJVq3FMeGu2rLj-9" style="edgeStyle=orthogonalEdgeStyle;rounded=0;orthogonalLoop=1;jettySize=auto;html=1;exitX=0.5;exitY=1;exitDx=0;exitDy=0;entryX=0.5;entryY=0;entryDx=0;entryDy=0;entryPerimeter=0;" edge="1" parent="WIyWlLk6GJQsqaUBKTNV-1" source="9c-8RdRJVq3FMeGu2rLj-3" target="9c-8RdRJVq3FMeGu2rLj-8">
          <mxGeometry relative="1" as="geometry" />
        </mxCell>
        <mxCell id="9c-8RdRJVq3FMeGu2rLj-11" style="edgeStyle=orthogonalEdgeStyle;rounded=0;orthogonalLoop=1;jettySize=auto;html=1;exitX=0.5;exitY=1;exitDx=0;exitDy=0;entryX=0.546;entryY=-0.018;entryDx=0;entryDy=0;entryPerimeter=0;" edge="1" parent="WIyWlLk6GJQsqaUBKTNV-1" source="9c-8RdRJVq3FMeGu2rLj-2" target="9c-8RdRJVq3FMeGu2rLj-5">
          <mxGeometry relative="1" as="geometry" />
        </mxCell>
        <mxCell id="9c-8RdRJVq3FMeGu2rLj-12" style="edgeStyle=orthogonalEdgeStyle;rounded=0;orthogonalLoop=1;jettySize=auto;html=1;exitX=0.5;exitY=1;exitDx=0;exitDy=0;entryX=0.45;entryY=0.03;entryDx=0;entryDy=0;entryPerimeter=0;" edge="1" parent="WIyWlLk6GJQsqaUBKTNV-1" source="9c-8RdRJVq3FMeGu2rLj-5" target="9c-8RdRJVq3FMeGu2rLj-3">
          <mxGeometry relative="1" as="geometry" />
        </mxCell>
      </root>
    </mxGraphModel>
  </diagram>
</mxfile>
